<svg viewBox="0 0 329.9999694824219 199.99998474121094" xmlns="http://www.w3.org/2000/svg"><g><g><g><g><g><line x1="60" y1="177" x2="55" y2="177" style="visibility: inherit;" fill="rgb(0, 0, 0)" stroke="rgb(204, 204, 204)" stroke-width="1px"></line><line x1="60" y1="163.3846153846154" x2="55" y2="163.3846153846154" style="visibility: inherit;" fill="rgb(0, 0, 0)" stroke="rgb(204, 204, 204)" stroke-width="1px"></line><line x1="60" y1="149.76923076923077" x2="55" y2="149.76923076923077" style="visibility: inherit;" fill="rgb(0, 0, 0)" stroke="rgb(204, 204, 204)" stroke-width="1px"></line><line x1="60" y1="136.15384615384616" x2="55" y2="136.15384615384616" style="visibility: inherit;" fill="rgb(0, 0, 0)" stroke="rgb(204, 204, 204)" stroke-width="1px"></line><line x1="60" y1="122.53846153846153" x2="55" y2="122.53846153846153" style="visibility: inherit;" fill="rgb(0, 0, 0)" stroke="rgb(204, 204, 204)" stroke-width="1px"></line><line x1="60" y1="108.92307692307693" x2="55" y2="108.92307692307693" style="visibility: inherit;" fill="rgb(0, 0, 0)" stroke="rgb(204, 204, 204)" stroke-width="1px"></line><line x1="60" y1="95.3076923076923" x2="55" y2="95.3076923076923" style="visibility: inherit;" fill="rgb(0, 0, 0)" stroke="rgb(204, 204, 204)" stroke-width="1px"></line><line x1="60" y1="81.6923076923077" x2="55" y2="81.6923076923077" style="visibility: inherit;" fill="rgb(0, 0, 0)" stroke="rgb(204, 204, 204)" stroke-width="1px"></line><line x1="60" y1="68.07692307692307" x2="55" y2="68.07692307692307" style="visibility: inherit;" fill="rgb(0, 0, 0)" stroke="rgb(204, 204, 204)" stroke-width="1px"></line><line x1="60" y1="54.46153846153847" x2="55" y2="54.46153846153847" style="visibility: inherit;" fill="rgb(0, 0, 0)" stroke="rgb(204, 204, 204)" stroke-width="1px"></line><line x1="60" y1="40.84615384615386" x2="55" y2="40.84615384615386" style="visibility: inherit;" fill="rgb(0, 0, 0)" stroke="rgb(204, 204, 204)" stroke-width="1px"></line><line x1="60" y1="27.230769230769234" x2="55" y2="27.230769230769234" style="visibility: inherit;" fill="rgb(0, 0, 0)" stroke="rgb(204, 204, 204)" stroke-width="1px"></line><line x1="60" y1="13.615384615384626" x2="55" y2="13.615384615384626" style="visibility: inherit;" fill="rgb(0, 0, 0)" stroke="rgb(204, 204, 204)" stroke-width="1px"></line><line x1="60" y1="0" x2="55" y2="0" style="visibility: inherit;" fill="rgb(0, 0, 0)" stroke="rgb(204, 204, 204)" stroke-width="1px"></line></g><g transform="translate(50, 0)"><text x="0" y="177" dx="0em" dy="0.3em" style="text-anchor: end; visibility: hidden; font-family: Roboto, sans-serif; font-size: 12px; font-weight: 200;" fill="rgb(33, 33, 33)" stroke="none" stroke-width="1px">-5e-3</text><text x="0" y="163.3846153846154" dx="0em" dy="0.3em" style="text-anchor: end; visibility: inherit; font-family: Roboto, sans-serif; font-size: 12px; font-weight: 200;" fill="rgb(33, 33, 33)" stroke="none" stroke-width="1px">0</text><text x="0" y="149.76923076923077" dx="0em" dy="0.3em" style="text-anchor: end; visibility: hidden; font-family: Roboto, sans-serif; font-size: 12px; font-weight: 200;" fill="rgb(33, 33, 33)" stroke="none" stroke-width="1px">5e-3</text><text x="0" y="136.15384615384616" dx="0em" dy="0.3em" style="text-anchor: end; visibility: inherit; font-family: Roboto, sans-serif; font-size: 12px; font-weight: 200;" fill="rgb(33, 33, 33)" stroke="none" stroke-width="1px">0.01</text><text x="0" y="122.53846153846153" dx="0em" dy="0.3em" style="text-anchor: end; visibility: hidden; font-family: Roboto, sans-serif; font-size: 12px; font-weight: 200;" fill="rgb(33, 33, 33)" stroke="none" stroke-width="1px">0.015</text><text x="0" y="108.92307692307693" dx="0em" dy="0.3em" style="text-anchor: end; visibility: inherit; font-family: Roboto, sans-serif; font-size: 12px; font-weight: 200;" fill="rgb(33, 33, 33)" stroke="none" stroke-width="1px">0.02</text><text x="0" y="95.3076923076923" dx="0em" dy="0.3em" style="text-anchor: end; visibility: hidden; font-family: Roboto, sans-serif; font-size: 12px; font-weight: 200;" fill="rgb(33, 33, 33)" stroke="none" stroke-width="1px">0.025</text><text x="0" y="81.6923076923077" dx="0em" dy="0.3em" style="text-anchor: end; visibility: inherit; font-family: Roboto, sans-serif; font-size: 12px; font-weight: 200;" fill="rgb(33, 33, 33)" stroke="none" stroke-width="1px">0.03</text><text x="0" y="68.07692307692307" dx="0em" dy="0.3em" style="text-anchor: end; visibility: hidden; font-family: Roboto, sans-serif; font-size: 12px; font-weight: 200;" fill="rgb(33, 33, 33)" stroke="none" stroke-width="1px">0.035</text><text x="0" y="54.46153846153847" dx="0em" dy="0.3em" style="text-anchor: end; visibility: inherit; font-family: Roboto, sans-serif; font-size: 12px; font-weight: 200;" fill="rgb(33, 33, 33)" stroke="none" stroke-width="1px">0.04</text><text x="0" y="40.84615384615386" dx="0em" dy="0.3em" style="text-anchor: end; visibility: hidden; font-family: Roboto, sans-serif; font-size: 12px; font-weight: 200;" fill="rgb(33, 33, 33)" stroke="none" stroke-width="1px">0.045</text><text x="0" y="27.230769230769234" dx="0em" dy="0.3em" style="text-anchor: end; visibility: inherit; font-family: Roboto, sans-serif; font-size: 12px; font-weight: 200;" fill="rgb(33, 33, 33)" stroke="none" stroke-width="1px">0.05</text><text x="0" y="13.615384615384626" dx="0em" dy="0.3em" style="text-anchor: end; visibility: hidden; font-family: Roboto, sans-serif; font-size: 12px; font-weight: 200;" fill="rgb(33, 33, 33)" stroke="none" stroke-width="1px">0.055</text><text x="0" y="0" dx="0em" dy="0.3em" style="text-anchor: end; visibility: hidden; font-family: Roboto, sans-serif; font-size: 12px; font-weight: 200;" fill="rgb(33, 33, 33)" stroke="none" stroke-width="1px">0.06</text></g><line x1="60" y1="0" x2="60" y2="177" fill="rgb(0, 0, 0)" stroke="rgb(204, 204, 204)" stroke-width="1px"></line></g></g><g transform="translate(60, 0)" clip-path="url(#clip_0)"><clipPath id="clip_0"><rect width="270" height="176"></rect></clipPath><g><g><g><line x1="0" y1="0" x2="0" y2="177" fill="rgb(0, 0, 0)" stroke="rgb(66, 66, 66)" stroke-width="1px" opacity="0.25"></line><line x1="22.5" y1="0" x2="22.5" y2="177" fill="rgb(0, 0, 0)" stroke="rgb(66, 66, 66)" stroke-width="1px" opacity="0.25"></line><line x1="45" y1="0" x2="45" y2="177" fill="rgb(0, 0, 0)" stroke="rgb(66, 66, 66)" stroke-width="1px" opacity="0.25"></line><line x1="67.5" y1="0" x2="67.5" y2="177" fill="rgb(0, 0, 0)" stroke="rgb(66, 66, 66)" stroke-width="1px" opacity="0.25"></line><line x1="90" y1="0" x2="90" y2="177" fill="rgb(0, 0, 0)" stroke="rgb(66, 66, 66)" stroke-width="1px" opacity="0.25"></line><line x1="112.5" y1="0" x2="112.5" y2="177" fill="rgb(0, 0, 0)" stroke="rgb(66, 66, 66)" stroke-width="1px" opacity="0.25"></line><line x1="135" y1="0" x2="135" y2="177" fill="rgb(0, 0, 0)" stroke="rgb(66, 66, 66)" stroke-width="1px" opacity="0.25"></line><line x1="157.5" y1="0" x2="157.5" y2="177" fill="rgb(0, 0, 0)" stroke="rgb(66, 66, 66)" stroke-width="1px" opacity="0.25"></line><line x1="180" y1="0" x2="180" y2="177" fill="rgb(0, 0, 0)" stroke="rgb(66, 66, 66)" stroke-width="1px" opacity="0.25"></line><line x1="202.5" y1="0" x2="202.5" y2="177" fill="rgb(0, 0, 0)" stroke="rgb(66, 66, 66)" stroke-width="1px" opacity="0.25"></line><line x1="225" y1="0" x2="225" y2="177" fill="rgb(0, 0, 0)" stroke="rgb(66, 66, 66)" stroke-width="1px" opacity="0.25"></line><line x1="247.5" y1="0" x2="247.5" y2="177" fill="rgb(0, 0, 0)" stroke="rgb(66, 66, 66)" stroke-width="1px" opacity="0.25"></line><line x1="270" y1="0" x2="270" y2="177" fill="rgb(0, 0, 0)" stroke="rgb(66, 66, 66)" stroke-width="1px" opacity="0.25"></line></g><g><line x1="0" y1="177" x2="270" y2="177" fill="rgb(0, 0, 0)" stroke="rgb(66, 66, 66)" stroke-width="1px" opacity="0.25"></line><line x1="0" y1="163.3846153846154" x2="270" y2="163.3846153846154" fill="rgb(0, 0, 0)" stroke="rgb(66, 66, 66)" stroke-width="1px" opacity="0.25"></line><line x1="0" y1="149.76923076923077" x2="270" y2="149.76923076923077" fill="rgb(0, 0, 0)" stroke="rgb(66, 66, 66)" stroke-width="1px" opacity="0.25"></line><line x1="0" y1="136.15384615384616" x2="270" y2="136.15384615384616" fill="rgb(0, 0, 0)" stroke="rgb(66, 66, 66)" stroke-width="1px" opacity="0.25"></line><line x1="0" y1="122.53846153846153" x2="270" y2="122.53846153846153" fill="rgb(0, 0, 0)" stroke="rgb(66, 66, 66)" stroke-width="1px" opacity="0.25"></line><line x1="0" y1="108.92307692307693" x2="270" y2="108.92307692307693" fill="rgb(0, 0, 0)" stroke="rgb(66, 66, 66)" stroke-width="1px" opacity="0.25"></line><line x1="0" y1="95.3076923076923" x2="270" y2="95.3076923076923" fill="rgb(0, 0, 0)" stroke="rgb(66, 66, 66)" stroke-width="1px" opacity="0.25"></line><line x1="0" y1="81.6923076923077" x2="270" y2="81.6923076923077" fill="rgb(0, 0, 0)" stroke="rgb(66, 66, 66)" stroke-width="1px" opacity="0.25"></line><line x1="0" y1="68.07692307692307" x2="270" y2="68.07692307692307" fill="rgb(0, 0, 0)" stroke="rgb(66, 66, 66)" stroke-width="1px" opacity="0.25"></line><line x1="0" y1="54.46153846153847" x2="270" y2="54.46153846153847" fill="rgb(0, 0, 0)" stroke="rgb(66, 66, 66)" stroke-width="1px" opacity="0.25"></line><line x1="0" y1="40.84615384615386" x2="270" y2="40.84615384615386" fill="rgb(0, 0, 0)" stroke="rgb(66, 66, 66)" stroke-width="1px" opacity="0.25"></line><line x1="0" y1="27.230769230769234" x2="270" y2="27.230769230769234" fill="rgb(0, 0, 0)" stroke="rgb(66, 66, 66)" stroke-width="1px" opacity="0.25"></line><line x1="0" y1="13.615384615384626" x2="270" y2="13.615384615384626" fill="rgb(0, 0, 0)" stroke="rgb(66, 66, 66)" stroke-width="1px" opacity="0.25"></line><line x1="0" y1="0" x2="270" y2="0" fill="rgb(0, 0, 0)" stroke="rgb(66, 66, 66)" stroke-width="1px" opacity="0.25"></line></g></g></g><g><g><line x1="0" y1="163.3846153846154" x2="270" y2="163.3846153846154" fill="rgb(0, 0, 0)" stroke="rgb(153, 153, 153)" stroke-width="1.5px"></line></g></g><g><g><line x1="22.5" y1="0" x2="22.5" y2="177" fill="rgb(0, 0, 0)" stroke="rgb(153, 153, 153)" stroke-width="1.5px"></line></g></g><g><g><g><g><g><path stroke="rgb(0, 153, 136)" stroke-width="2px" d="M22.5,24.852528464335666L27,98.4167311412927L31.5,127.25853197312267L36,141.76418445964805L40.5,149.9049246642364L45,154.74435990639475L49.5,157.72389571603404L54,159.59564205457332L58.5,160.7979350554715L63,161.5797128070925L67.5,162.09604952363566L72,162.44252314841552L76.5,162.67908566969047L81,162.84376037096013L85.5,162.96115199433896L90,163.04666646592125L94.5,163.11007589638388L99,163.15851524784708L103.5,163.19618690971382L108,163.22588931307538L112.5,163.24951252516115L117,163.26867113917868L121.5,163.28442254154217L126,163.29755192178325L130.5,163.30858055754865L135,163.31796800596544L139.5,163.32599391829046L144,163.33291362131274L148.5,163.33889903048936L153,163.34410151205094L157.5,163.3486707179575L162,163.3526666245391L166.5,163.3561704336954L171,163.35925898113686L175.5,163.36199239436766L180,163.36440000008128L184.5,163.36654095649413L189,163.36843793209508L193.5,163.37012401702484L198,163.37162776673728L202.5,163.37297085192694L207,163.37416286197458L211.5,163.3752355778457L216,163.37619353182245L220.5,163.37705118965417L225,163.3778126480453L229.5,163.37849523120195L234,163.37910991850256L238.5,163.37966171340153L243,163.38015440962448" style="fill: none;" fill="none"></path></g><g><path stroke="rgb(238, 51, 119)" stroke-width="2px" d="M31.5,-126.79355733891367L36,3.7063522626702925L40.5,71.39926946017383L45,109.0081057327978L49.5,130.70771044994373L54,143.50907098431463L58.5,151.16698832544776L63,155.79301711760274L67.5,158.60942711307928L72,160.33567117565363L76.5,161.402433976895L81,162.06745054830972L85.5,162.48682617060513L90,162.75514027656098L94.5,162.92967827245093L99,163.04550595514027L103.5,163.12435519227728L108,163.17947553541498L112.5,163.21895694707112L117,163.24804134355884L121.5,163.27007327150588L126,163.28722795863226L130.5,163.3009431397046L135,163.31210692683283L139.5,163.3213800959396L144,163.3291712583357L148.5,163.33582244306288L153,163.34153375852995L157.5,163.3464750097344L162,163.3507708138054L166.5,163.3545262468309L171,163.35782933560174L175.5,163.36073128090035L180,163.3632989074028L184.5,163.36557161298228L189,163.36758412271746L193.5,163.36937013078006L198,163.3709546102758L202.5,163.37237389530014L207,163.37363435124604L211.5,163.37475793019948L216,163.37576721953658L220.5,163.37667074215491L225,163.37747720364067L229.5,163.37819672214547L234,163.37884052365305L238.5,163.37941811472456L243,163.37994015105872" style="fill: none;" fill="none"></path></g><g><path stroke="rgb(51, 187, 238)" stroke-width="2px" d="M27,-116.34685258338081L31.5,13.421775958882433L36,76.74925941638693L40.5,111.20721433414543L45,131.11480314698798L49.5,143.0416209694762L54,150.3382207994938L58.5,154.87265313745831L63,157.7274135790934L67.5,159.5596092749166L72,160.76068401680047L76.5,161.5449255895008L81,162.0629164688247L85.5,162.40913773413817L90,162.64635640746812L94.5,162.81216880664908L99,162.93032785759863L103.5,163.0164145015466L108,163.0809924365925L112.5,163.13093276408313L117,163.1700540876424L121.5,163.20138912292012L126,163.22688922206424L130.5,163.2479077810359L135,163.26545078021275L139.5,163.28027051788013L144,163.29295237048584L148.5,163.30382093938164L153,163.31323910678856L157.5,163.3213941822134L162,163.3284461139874L166.5,163.3347081877121L171,163.3401678344365L175.5,163.34500054020899L180,163.34924297531535L184.5,163.3530018375005L189,163.35631927681194L193.5,163.35928775129898L198,163.3619175061944L202.5,163.36426774832546L207,163.3663645817006L211.5,163.36822804590977L216,163.36987936486983L220.5,163.37135892047547L225,163.37270514505465L229.5,163.3739120313538L234,163.37497355833102L238.5,163.37594099807401L243,163.37680363880344" style="fill: none;" fill="none"></path></g><g><path stroke="rgb(204, 51, 17)" stroke-width="2px" d="M40.5,-28.29274505668613L45,49.60765284329334L49.5,94.76298545860197L54,121.50325840923013L58.5,137.5538852819401L63,147.2807341249071L67.5,153.22452635863053L72,156.91345129096504L76.5,159.2045595600594L81,160.63460819978658L85.5,161.5343970980309L90,162.10682617936078L94.5,162.47621210464735L99,162.71914960737573L103.5,162.88208281349782L108,162.99406855162718L112.5,163.07316500586364L117,163.1306590113229L121.5,163.17360983882924L126,163.20662923906877L130.5,163.23268543592394L135,163.25373031350355L139.5,163.27095370125943L144,163.285351326253L148.5,163.29751968845463L153,163.30785693369043L157.5,163.31681102103514L162,163.3245619373976L166.5,163.33132311545535L171,163.33723311952713L175.5,163.3423800493097L180,163.34693892555413L184.5,163.3509500197575L189,163.3545128951328L193.5,163.3576647899685L198,163.36047186465836L202.5,163.36297455248055L207,163.36520284926243L211.5,163.36719074406153L216,163.3689706047893L220.5,163.3705509674299L225,163.37197467305313L229.5,163.3732441383574L234,163.3743824719342L238.5,163.37540221939318L243,163.37631920231397" style="fill: none;" fill="none"></path></g><g><path stroke="rgb(0, 119, 187)" stroke-width="2px" d="M22.5,17.55245079902501L27,88.90532540845184L31.5,121.25242934967838L36,137.98091108708513L40.5,147.53928570938749L45,153.2618082746726L49.5,156.78496248285515L54,158.9992775888063L58.5,160.41634615085349L63,161.33205505071004L67.5,161.93393355694025L72,162.33454138744906L76.5,162.60564458283946L81,162.79295899722547L85.5,162.92472431442002L90,163.01988407340812L94.5,163.08991785561935L99,163.14245783720864L103.5,163.18296465377188L108,163.21449734369415L112.5,163.23992468880382L117,163.26060369360096L121.5,163.2775727650509L126,163.29167567478268L130.5,163.30358169803557L135,163.31366403364L139.5,163.32225313123374L144,163.3296437616349L148.5,163.33602809474422L153,163.34159388067835L157.5,163.34646676036002L162,163.3507107434415L166.5,163.35443835202915L171,163.35773042454187L175.5,163.36061139467554L180,163.36316783091388L184.5,163.36542752824266L189,163.36744563849808L193.5,163.36923700748972L198,163.3708280806674L202.5,163.37224829695234L207,163.37350774073192L211.5,163.37464361212955L216,163.37565324406387L220.5,163.37656381292376L225,163.37735968352223L229.5,163.37808956693584L234,163.37874458521603L238.5,163.37933069843623L243,163.37985847798893" style="fill: none;" fill="none"></path></g><g><path stroke="rgb(255, 112, 67)" stroke-width="2px" d="M31.5,-56.354342231687795L36,40.95566801656813L40.5,92.16182979200781L45,120.89470417396466L49.5,137.6119842414182L54,147.54651515425022L58.5,153.53545735357469L63,157.18196531345197L67.5,159.4214038787765L72,160.8080767057337L76.5,161.67484015997763L81,162.22178761531916L85.5,162.57209193832335L90,162.79999515987734L94.5,162.95105212771233L99,163.05357984633318L103.5,163.12484668946357L108,163.17579829942363L112.5,163.21326750069463L117,163.24165469140232L121.5,163.2636429862291L126,163.2811903562143L130.5,163.29542304190397L135,163.30716261737354L139.5,163.31698836823932L144,163.32528764093664L148.5,163.33236791221762L153,163.33847324852042L157.5,163.34376154991537L162,163.3483580909395L166.5,163.35237759181268L171,163.3559098952758L175.5,163.35901238312258L180,163.36175623998662L184.5,163.3641795186024L189,163.36633074805619L193.5,163.36823841524824L198,163.36994348895416L202.5,163.3714646001016L207,163.3728123219598L211.5,163.3740184017181L216,163.37509757836415L220.5,163.3760604353666L225,163.3769234445213L229.5,163.37769124118705L234,163.37838347573233L238.5,163.3790057878062L243,163.37956548949526" style="fill: none;" fill="none"></path></g></g></g></g><g opacity="0.2"><g><g><g><path stroke="rgb(0, 153, 136)" stroke-width="2px" d="M22.5,24.852528464335666L27,142.5552527474669L31.5,154.9466607716794L36,158.8228317838019L40.5,160.53347507534693L45,161.439041042987L49.5,161.98467959639115L54,162.32466618492842L58.5,162.5710836984038L63,162.74056165674344L67.5,162.86587146243366L72,162.96034809141958L76.5,163.0331570339264L81,163.09044980798186L85.5,163.13710143996062L90,163.17487786186393L94.5,163.20516320933194L99,163.2311619762958L103.5,163.2526886636154L108,163.27044020320037L112.5,163.28494604773675L117,163.29740842978265L121.5,163.30804933410343L126,163.31724583661483L130.5,163.32512343280987L135,163.33204913855744L139.5,163.33803276624195L144,163.34329316522278L148.5,163.34787713874093L153,163.35190523151797L157.5,163.35552452530212L162,163.3586604836164L166.5,163.3614261470116L171,163.3638918020778L175.5,163.36609251409644L180,163.36801140858958L184.5,163.3697523910803L189,163.3712833954789L193.5,163.37265314441007L198,163.37388339130092L202.5,163.37498547970873L207,163.37595087704457L211.5,163.37684465165162L216,163.37763046278715L220.5,163.37833767640151L225,163.3789548356319L229.5,163.3795191059369L234,163.38003194945338L238.5,163.38048940574998L243,163.38089345395886" style="fill: none;" fill="none"></path></g><g><path stroke="rgb(238, 51, 119)" stroke-width="2px" d="M22.5,-1290.4030773089482L27,109.88714727759361L31.5,150.09744708039437L36,157.174245954133L40.5,159.77914215323443L45,161.0346654788949L49.5,161.73849238913792L54,162.17357753648852L58.5,162.46092892975474L63,162.66213073805332L67.5,162.80849747492286L72,162.91564312555755L76.5,162.99909501312337L81,163.0636725687386L85.5,163.115396643747L90,163.15742219959904L94.5,163.19141140765547L99,163.2192180705382L103.5,163.24261703609508L108,163.26215101190385L112.5,163.2781768993009L117,163.29166698125593L121.5,163.30312072844447L126,163.31295978610825L130.5,163.32151581383144L135,163.3288525599167L139.5,163.33528982587225L144,163.34085798996855L148.5,163.34579921402698L153,163.35010072857403L157.5,163.35388688490247L162,163.35721451905724L166.5,163.3601593959208L171,163.3627839685214L175.5,163.36508419872357L180,163.36715034709022L184.5,163.36898067131634L189,163.37060288730152L193.5,163.37204914286403L198,163.37333132951412L202.5,163.37450282283388L207,163.37552503516335L211.5,163.37644329862886L216,163.37728115354184L220.5,163.3780260260821L225,163.37868689586924L229.5,163.37927599990255L234,163.37980622591442L238.5,163.3802845013318L243,163.38072320555995" style="fill: none;" fill="none"></path></g><g><path stroke="rgb(51, 187, 238)" stroke-width="2px" d="M22.5,-442.3786244300696L27,79.2722105246324L31.5,137.9996593594551L36,151.22237996241222L40.5,156.19552027477096L45,158.6541652071218L49.5,160.09716128471953L54,160.97673339901777L58.5,161.5600600678187L63,161.96640012972057L67.5,162.2912849385399L72,162.55575993392043L76.5,162.71872726374735L81,162.83888798975386L85.5,162.92806266200765L90,163.00201711247567L94.5,163.06081723917023L99,163.10753643345268L103.5,163.14553135303476L108,163.1778534364824L112.5,163.20584051647276L117,163.22873478567746L121.5,163.24839105718107L126,163.26513906870744L130.5,163.27943547010253L135,163.29176520416513L139.5,163.30250008646152L144,163.31197512992478L148.5,163.32012378271386L153,163.3273663526936L157.5,163.33362679264638L162,163.33902401024534L166.5,163.3441012975516L171,163.348357304132L175.5,163.35224959866005L180,163.35560662786548L184.5,163.3586401307201L189,163.36129543574833L193.5,163.36374046301296L198,163.36586213852877L202.5,163.36779311151733L207,163.36950983176072L211.5,163.3710232422222L216,163.3723563433092L220.5,163.37357825388355L225,163.3747244819232L229.5,163.3757223608024L234,163.37656584879676L238.5,163.37739215768852L243,163.37809759989753" style="fill: none;" fill="none"></path></g><g><path stroke="rgb(204, 51, 17)" stroke-width="2px" d="M27,-155.2526713151198L31.5,115.17884563482725L36,145.1128760980299L40.5,153.68575623731775L45,157.37194728220885L49.5,159.33583358381517L54,160.4908330778663L58.5,161.22544224542352L63,161.72397105084158L67.5,162.08630495111888L72,162.42676372288798L76.5,162.63374109768594L81,162.7768795452206L85.5,162.88302277732427L90,162.96506608001744L94.5,163.03013468083316L99,163.08349417966272L103.5,163.1264578014469L108,163.16203692288119L112.5,163.19180534938081L117,163.21689812764706L121.5,163.23803523209958L126,163.2561579482818L130.5,163.2717695460104L135,163.28529754012618L139.5,163.29678873882332L144,163.3069477416396L148.5,163.31577222054833L153,163.32336279583083L157.5,163.33024214908298L162,163.33618831039908L166.5,163.34146488173485L171,163.3460981252115L175.5,163.35010044376227L180,163.35377723980324L184.5,163.35696666100054L189,163.35985720816265L193.5,163.36239263220452L198,163.3646824766838L202.5,163.36672858420877L207,163.3685452944326L211.5,163.37017258625872L216,163.37164039588018L220.5,163.3729215113904L225,163.37411023148778L229.5,163.37514833631366L234,163.37608997229935L238.5,163.3769318405816L243,163.3776946766951" style="fill: none;" fill="none"></path></g><g><path stroke="rgb(0, 119, 187)" stroke-width="2px" d="M22.5,17.55245079902503L27,131.7170501741079L31.5,152.30564913325583L36,157.6536056102755L40.5,160.01869961626542L45,161.17811709058543L49.5,161.82312937102353L54,162.22777027070808L58.5,162.50624702847563L63,162.69177604661897L67.5,162.83129232253233L72,162.93327304308949L76.5,163.01141417695462L81,163.07356365036685L85.5,163.12221740502775L90,163.1625565978555L94.5,163.19493889298667L99,163.22125446969696L103.5,163.2437187078109L108,163.2617934963648L112.5,163.27806431197232L117,163.29162152034516L121.5,163.30302603720114L126,163.3128298723179L130.5,163.321440648292L135,163.32878749405006L139.5,163.3351367556472L144,163.34072969589033L148.5,163.34560458852727L153,163.34994255650346L157.5,163.35377607826658L162,163.35707671721937L166.5,163.3600297644656L171,163.36266853307518L175.5,163.36493284975222L180,163.36700248520552L184.5,163.36881707420085L189,163.37047280386244L193.5,163.3719240609672L198,163.37321469042863L202.5,163.37437862137688L207,163.37539690639977L211.5,163.37634741922514L216,163.37716769196496L220.5,163.37792966621336L225,163.37855348941986L229.5,163.37918439205615L234,163.37972711263626L238.5,163.38020986826652L243,163.380650147318" style="fill: none;" fill="none"></path></g><g><path stroke="rgb(255, 112, 67)" stroke-width="2px" d="M22.5,-858.7646659337557L27,90.42072323193916L31.5,144.44833502288049L36,155.39224006851705L40.5,159.01659460602184L45,160.64261327898848L49.5,161.51796221435788L54,162.03115659665602L58.5,162.36798380544553L63,162.59660465524604L67.5,162.76025018379843L72,162.8805397338807L76.5,162.9721552082785L81,163.0411372713279L85.5,163.09713665324782L90,163.14168925719926L94.5,163.17757365721852L99,163.20734539248784L103.5,163.23173609737287L108,163.25222105718478L112.5,163.26946924770107L117,163.28423454337127L121.5,163.2966249943487L126,163.3075112033268L130.5,163.31677196927865L135,163.32477193051398L139.5,163.3317269693966L144,163.33773653724123L148.5,163.34298831261717L153,163.3476312496003L157.5,163.35169400025413L162,163.3552529015612L166.5,163.35840684264258L171,163.36120835021742L175.5,163.36366611475947L180,163.36587202521193L184.5,163.3678144364886L189,163.3695575922169L193.5,163.37109991602566L198,163.37250109950736L202.5,163.37374626681972L207,163.37483390474546L211.5,163.37582752135467L216,163.37671634333282L220.5,163.37750472087L225,163.3782179582532L229.5,163.37884293618563L234,163.3794218275502L238.5,163.37993925591692L243,163.38040504202888" style="fill: none;" fill="none"></path></g></g></g></g></g></g><g transform="translate(60, 177)" clip-path="url(#clip_1)"><clipPath id="clip_1"><rect width="270" height="22"></rect></clipPath><g><g><line x1="0" y1="0" x2="0" y2="5" style="visibility: inherit;" fill="rgb(0, 0, 0)" stroke="rgb(204, 204, 204)" stroke-width="1px"></line><line x1="22.5" y1="0" x2="22.5" y2="5" style="visibility: inherit;" fill="rgb(0, 0, 0)" stroke="rgb(204, 204, 204)" stroke-width="1px"></line><line x1="45" y1="0" x2="45" y2="5" style="visibility: inherit;" fill="rgb(0, 0, 0)" stroke="rgb(204, 204, 204)" stroke-width="1px"></line><line x1="67.5" y1="0" x2="67.5" y2="5" style="visibility: inherit;" fill="rgb(0, 0, 0)" stroke="rgb(204, 204, 204)" stroke-width="1px"></line><line x1="90" y1="0" x2="90" y2="5" style="visibility: inherit;" fill="rgb(0, 0, 0)" stroke="rgb(204, 204, 204)" stroke-width="1px"></line><line x1="112.5" y1="0" x2="112.5" y2="5" style="visibility: inherit;" fill="rgb(0, 0, 0)" stroke="rgb(204, 204, 204)" stroke-width="1px"></line><line x1="135" y1="0" x2="135" y2="5" style="visibility: inherit;" fill="rgb(0, 0, 0)" stroke="rgb(204, 204, 204)" stroke-width="1px"></line><line x1="157.5" y1="0" x2="157.5" y2="5" style="visibility: inherit;" fill="rgb(0, 0, 0)" stroke="rgb(204, 204, 204)" stroke-width="1px"></line><line x1="180" y1="0" x2="180" y2="5" style="visibility: inherit;" fill="rgb(0, 0, 0)" stroke="rgb(204, 204, 204)" stroke-width="1px"></line><line x1="202.5" y1="0" x2="202.5" y2="5" style="visibility: inherit;" fill="rgb(0, 0, 0)" stroke="rgb(204, 204, 204)" stroke-width="1px"></line><line x1="225" y1="0" x2="225" y2="5" style="visibility: inherit;" fill="rgb(0, 0, 0)" stroke="rgb(204, 204, 204)" stroke-width="1px"></line><line x1="247.5" y1="0" x2="247.5" y2="5" style="visibility: inherit;" fill="rgb(0, 0, 0)" stroke="rgb(204, 204, 204)" stroke-width="1px"></line><line x1="270" y1="0" x2="270" y2="5" style="visibility: inherit;" fill="rgb(0, 0, 0)" stroke="rgb(204, 204, 204)" stroke-width="1px"></line></g><g transform="translate(0, 8)"><text x="0" y="0" dx="0em" dy="0.95em" style="text-anchor: middle; visibility: hidden; font-family: Roboto, sans-serif; font-size: 12px; font-weight: 200;" fill="rgb(33, 33, 33)" stroke="none" stroke-width="1px">-5</text><text x="22.5" y="0" dx="0em" dy="0.95em" style="text-anchor: middle; visibility: inherit; font-family: Roboto, sans-serif; font-size: 12px; font-weight: 200;" fill="rgb(33, 33, 33)" stroke="none" stroke-width="1px">0</text><text x="45" y="0" dx="0em" dy="0.95em" style="text-anchor: middle; visibility: inherit; font-family: Roboto, sans-serif; font-size: 12px; font-weight: 200;" fill="rgb(33, 33, 33)" stroke="none" stroke-width="1px">5</text><text x="67.5" y="0" dx="0em" dy="0.95em" style="text-anchor: middle; visibility: inherit; font-family: Roboto, sans-serif; font-size: 12px; font-weight: 200;" fill="rgb(33, 33, 33)" stroke="none" stroke-width="1px">10</text><text x="90" y="0" dx="0em" dy="0.95em" style="text-anchor: middle; visibility: inherit; font-family: Roboto, sans-serif; font-size: 12px; font-weight: 200;" fill="rgb(33, 33, 33)" stroke="none" stroke-width="1px">15</text><text x="112.5" y="0" dx="0em" dy="0.95em" style="text-anchor: middle; visibility: inherit; font-family: Roboto, sans-serif; font-size: 12px; font-weight: 200;" fill="rgb(33, 33, 33)" stroke="none" stroke-width="1px">20</text><text x="135" y="0" dx="0em" dy="0.95em" style="text-anchor: middle; visibility: inherit; font-family: Roboto, sans-serif; font-size: 12px; font-weight: 200;" fill="rgb(33, 33, 33)" stroke="none" stroke-width="1px">25</text><text x="157.5" y="0" dx="0em" dy="0.95em" style="text-anchor: middle; visibility: inherit; font-family: Roboto, sans-serif; font-size: 12px; font-weight: 200;" fill="rgb(33, 33, 33)" stroke="none" stroke-width="1px">30</text><text x="180" y="0" dx="0em" dy="0.95em" style="text-anchor: middle; visibility: inherit; font-family: Roboto, sans-serif; font-size: 12px; font-weight: 200;" fill="rgb(33, 33, 33)" stroke="none" stroke-width="1px">35</text><text x="202.5" y="0" dx="0em" dy="0.95em" style="text-anchor: middle; visibility: inherit; font-family: Roboto, sans-serif; font-size: 12px; font-weight: 200;" fill="rgb(33, 33, 33)" stroke="none" stroke-width="1px">40</text><text x="225" y="0" dx="0em" dy="0.95em" style="text-anchor: middle; visibility: inherit; font-family: Roboto, sans-serif; font-size: 12px; font-weight: 200;" fill="rgb(33, 33, 33)" stroke="none" stroke-width="1px">45</text><text x="247.5" y="0" dx="0em" dy="0.95em" style="text-anchor: middle; visibility: inherit; font-family: Roboto, sans-serif; font-size: 12px; font-weight: 200;" fill="rgb(33, 33, 33)" stroke="none" stroke-width="1px">50</text><text x="270" y="0" dx="0em" dy="0.95em" style="text-anchor: middle; visibility: hidden; font-family: Roboto, sans-serif; font-size: 12px; font-weight: 200;" fill="rgb(33, 33, 33)" stroke="none" stroke-width="1px">55</text></g><line x1="0" y1="0" x2="270" y2="0" fill="rgb(0, 0, 0)" stroke="rgb(204, 204, 204)" stroke-width="1px"></line></g></g></g></g></svg>