<svg viewBox="0 0 329.9999694824219 199.99998474121094" xmlns="http://www.w3.org/2000/svg"><g><g><g><g><g><line x1="60" y1="177" x2="55" y2="177" style="visibility: inherit;" fill="rgb(0, 0, 0)" stroke="rgb(204, 204, 204)" stroke-width="1px"></line><line x1="60" y1="157.33333333333331" x2="55" y2="157.33333333333331" style="visibility: inherit;" fill="rgb(0, 0, 0)" stroke="rgb(204, 204, 204)" stroke-width="1px"></line><line x1="60" y1="137.66666666666666" x2="55" y2="137.66666666666666" style="visibility: inherit;" fill="rgb(0, 0, 0)" stroke="rgb(204, 204, 204)" stroke-width="1px"></line><line x1="60" y1="118.00000000000001" x2="55" y2="118.00000000000001" style="visibility: inherit;" fill="rgb(0, 0, 0)" stroke="rgb(204, 204, 204)" stroke-width="1px"></line><line x1="60" y1="98.33333333333334" x2="55" y2="98.33333333333334" style="visibility: inherit;" fill="rgb(0, 0, 0)" stroke="rgb(204, 204, 204)" stroke-width="1px"></line><line x1="60" y1="78.66666666666666" x2="55" y2="78.66666666666666" style="visibility: inherit;" fill="rgb(0, 0, 0)" stroke="rgb(204, 204, 204)" stroke-width="1px"></line><line x1="60" y1="59.00000000000001" x2="55" y2="59.00000000000001" style="visibility: inherit;" fill="rgb(0, 0, 0)" stroke="rgb(204, 204, 204)" stroke-width="1px"></line><line x1="60" y1="39.33333333333333" x2="55" y2="39.33333333333333" style="visibility: inherit;" fill="rgb(0, 0, 0)" stroke="rgb(204, 204, 204)" stroke-width="1px"></line><line x1="60" y1="19.666666666666675" x2="55" y2="19.666666666666675" style="visibility: inherit;" fill="rgb(0, 0, 0)" stroke="rgb(204, 204, 204)" stroke-width="1px"></line><line x1="60" y1="0" x2="55" y2="0" style="visibility: inherit;" fill="rgb(0, 0, 0)" stroke="rgb(204, 204, 204)" stroke-width="1px"></line></g><g transform="translate(50, 0)"><text x="0" y="177" dx="0em" dy="0.3em" style="text-anchor: end; visibility: hidden; font-family: Roboto, sans-serif; font-size: 12px; font-weight: 200;" fill="rgb(33, 33, 33)" stroke="none" stroke-width="1px">0.984</text><text x="0" y="157.33333333333331" dx="0em" dy="0.3em" style="text-anchor: end; visibility: inherit; font-family: Roboto, sans-serif; font-size: 12px; font-weight: 200;" fill="rgb(33, 33, 33)" stroke="none" stroke-width="1px">0.986</text><text x="0" y="137.66666666666666" dx="0em" dy="0.3em" style="text-anchor: end; visibility: hidden; font-family: Roboto, sans-serif; font-size: 12px; font-weight: 200;" fill="rgb(33, 33, 33)" stroke="none" stroke-width="1px">0.988</text><text x="0" y="118.00000000000001" dx="0em" dy="0.3em" style="text-anchor: end; visibility: inherit; font-family: Roboto, sans-serif; font-size: 12px; font-weight: 200;" fill="rgb(33, 33, 33)" stroke="none" stroke-width="1px">0.99</text><text x="0" y="98.33333333333334" dx="0em" dy="0.3em" style="text-anchor: end; visibility: hidden; font-family: Roboto, sans-serif; font-size: 12px; font-weight: 200;" fill="rgb(33, 33, 33)" stroke="none" stroke-width="1px">0.992</text><text x="0" y="78.66666666666666" dx="0em" dy="0.3em" style="text-anchor: end; visibility: inherit; font-family: Roboto, sans-serif; font-size: 12px; font-weight: 200;" fill="rgb(33, 33, 33)" stroke="none" stroke-width="1px">0.994</text><text x="0" y="59.00000000000001" dx="0em" dy="0.3em" style="text-anchor: end; visibility: hidden; font-family: Roboto, sans-serif; font-size: 12px; font-weight: 200;" fill="rgb(33, 33, 33)" stroke="none" stroke-width="1px">0.996</text><text x="0" y="39.33333333333333" dx="0em" dy="0.3em" style="text-anchor: end; visibility: inherit; font-family: Roboto, sans-serif; font-size: 12px; font-weight: 200;" fill="rgb(33, 33, 33)" stroke="none" stroke-width="1px">0.998</text><text x="0" y="19.666666666666675" dx="0em" dy="0.3em" style="text-anchor: end; visibility: hidden; font-family: Roboto, sans-serif; font-size: 12px; font-weight: 200;" fill="rgb(33, 33, 33)" stroke="none" stroke-width="1px">1</text><text x="0" y="0" dx="0em" dy="0.3em" style="text-anchor: end; visibility: hidden; font-family: Roboto, sans-serif; font-size: 12px; font-weight: 200;" fill="rgb(33, 33, 33)" stroke="none" stroke-width="1px">1</text></g><line x1="60" y1="0" x2="60" y2="177" fill="rgb(0, 0, 0)" stroke="rgb(204, 204, 204)" stroke-width="1px"></line></g></g><g transform="translate(60, 0)" clip-path="url(#clip_0)"><clipPath id="clip_0"><rect width="270" height="176"></rect></clipPath><g><g><g><line x1="0" y1="0" x2="0" y2="177" fill="rgb(0, 0, 0)" stroke="rgb(66, 66, 66)" stroke-width="1px" opacity="0.25"></line><line x1="22.5" y1="0" x2="22.5" y2="177" fill="rgb(0, 0, 0)" stroke="rgb(66, 66, 66)" stroke-width="1px" opacity="0.25"></line><line x1="45" y1="0" x2="45" y2="177" fill="rgb(0, 0, 0)" stroke="rgb(66, 66, 66)" stroke-width="1px" opacity="0.25"></line><line x1="67.5" y1="0" x2="67.5" y2="177" fill="rgb(0, 0, 0)" stroke="rgb(66, 66, 66)" stroke-width="1px" opacity="0.25"></line><line x1="90" y1="0" x2="90" y2="177" fill="rgb(0, 0, 0)" stroke="rgb(66, 66, 66)" stroke-width="1px" opacity="0.25"></line><line x1="112.5" y1="0" x2="112.5" y2="177" fill="rgb(0, 0, 0)" stroke="rgb(66, 66, 66)" stroke-width="1px" opacity="0.25"></line><line x1="135" y1="0" x2="135" y2="177" fill="rgb(0, 0, 0)" stroke="rgb(66, 66, 66)" stroke-width="1px" opacity="0.25"></line><line x1="157.5" y1="0" x2="157.5" y2="177" fill="rgb(0, 0, 0)" stroke="rgb(66, 66, 66)" stroke-width="1px" opacity="0.25"></line><line x1="180" y1="0" x2="180" y2="177" fill="rgb(0, 0, 0)" stroke="rgb(66, 66, 66)" stroke-width="1px" opacity="0.25"></line><line x1="202.5" y1="0" x2="202.5" y2="177" fill="rgb(0, 0, 0)" stroke="rgb(66, 66, 66)" stroke-width="1px" opacity="0.25"></line><line x1="225" y1="0" x2="225" y2="177" fill="rgb(0, 0, 0)" stroke="rgb(66, 66, 66)" stroke-width="1px" opacity="0.25"></line><line x1="247.5" y1="0" x2="247.5" y2="177" fill="rgb(0, 0, 0)" stroke="rgb(66, 66, 66)" stroke-width="1px" opacity="0.25"></line><line x1="270" y1="0" x2="270" y2="177" fill="rgb(0, 0, 0)" stroke="rgb(66, 66, 66)" stroke-width="1px" opacity="0.25"></line></g><g><line x1="0" y1="177" x2="270" y2="177" fill="rgb(0, 0, 0)" stroke="rgb(66, 66, 66)" stroke-width="1px" opacity="0.25"></line><line x1="0" y1="157.33333333333331" x2="270" y2="157.33333333333331" fill="rgb(0, 0, 0)" stroke="rgb(66, 66, 66)" stroke-width="1px" opacity="0.25"></line><line x1="0" y1="137.66666666666666" x2="270" y2="137.66666666666666" fill="rgb(0, 0, 0)" stroke="rgb(66, 66, 66)" stroke-width="1px" opacity="0.25"></line><line x1="0" y1="118.00000000000001" x2="270" y2="118.00000000000001" fill="rgb(0, 0, 0)" stroke="rgb(66, 66, 66)" stroke-width="1px" opacity="0.25"></line><line x1="0" y1="98.33333333333334" x2="270" y2="98.33333333333334" fill="rgb(0, 0, 0)" stroke="rgb(66, 66, 66)" stroke-width="1px" opacity="0.25"></line><line x1="0" y1="78.66666666666666" x2="270" y2="78.66666666666666" fill="rgb(0, 0, 0)" stroke="rgb(66, 66, 66)" stroke-width="1px" opacity="0.25"></line><line x1="0" y1="59.00000000000001" x2="270" y2="59.00000000000001" fill="rgb(0, 0, 0)" stroke="rgb(66, 66, 66)" stroke-width="1px" opacity="0.25"></line><line x1="0" y1="39.33333333333333" x2="270" y2="39.33333333333333" fill="rgb(0, 0, 0)" stroke="rgb(66, 66, 66)" stroke-width="1px" opacity="0.25"></line><line x1="0" y1="19.666666666666675" x2="270" y2="19.666666666666675" fill="rgb(0, 0, 0)" stroke="rgb(66, 66, 66)" stroke-width="1px" opacity="0.25"></line><line x1="0" y1="0" x2="270" y2="0" fill="rgb(0, 0, 0)" stroke="rgb(66, 66, 66)" stroke-width="1px" opacity="0.25"></line></g></g></g><g><g><line x1="0" y1="9852.99999999999" x2="270" y2="9852.99999999999" fill="rgb(0, 0, 0)" stroke="rgb(153, 153, 153)" stroke-width="1.5px"></line></g></g><g><g><line x1="22.5" y1="0" x2="22.5" y2="177" fill="rgb(0, 0, 0)" stroke="rgb(153, 153, 153)" stroke-width="1.5px"></line></g></g><g><g><g><g><g><path stroke="rgb(0, 153, 136)" stroke-width="2px" d="M22.5,19.666666666666675L27,19.666666666666675L31.5,19.666666666666675L36,19.666666666666675L40.5,19.666666666666675L45,19.666666666666675L49.5,19.666666666666675L54,19.666666666666675L58.5,19.666666666666675L63,19.666666666666675L67.5,19.666666666666675L72,19.666666666666675L76.5,19.666666666666675L81,19.666666666666675L85.5,19.666666666666675L90,19.666666666666675L94.5,19.666666666666675L99,19.666666666666675L103.5,19.666666666666675L108,19.666666666666675L112.5,19.666666666666675L117,19.666666666666675L121.5,19.666666666666675L126,19.666666666666675L130.5,19.666666666666675L135,19.666666666666675L139.5,19.666666666666675L144,19.666666666666675L148.5,19.666666666666675L153,19.666666666666675L157.5,19.666666666666675L162,19.666666666666675L166.5,19.666666666666675L171,19.666666666666675L175.5,19.666666666666675L180,19.666666666666675L184.5,19.666666666666675L189,19.666666666666675L193.5,19.666666666666675L198,19.666666666666675L202.5,19.666666666666675L207,19.666666666666675L211.5,19.666666666666675L216,19.666666666666675L220.5,19.666666666666675L225,19.666666666666675L229.5,19.666666666666675L234,19.666666666666675L238.5,19.666666666666675L243,19.666666666666675" style="fill: none;" fill="none"></path></g><g><path stroke="rgb(238, 51, 119)" stroke-width="2px" d="M36,264.74732659961745L40.5,158.4493304454934L45,100.21949366933302L49.5,67.07040041123811L54,47.784986007416364L58.5,36.42315721453785L63,29.679786410804244L67.5,25.659954681980913L72,23.257409658286292L76.5,21.819234104553278L81,20.957531863640845L85.5,20.440942892473807L90,20.13114500476135L94.5,19.94532221593235L99,19.833848674978075L103.5,19.766971796445688L108,19.72684827755416L112.5,19.702775105107236L117,19.688331539621853L121.5,19.67966552200165L126,19.674465955230172L130.5,19.671346230934542L135,19.66947440203543L139.5,19.6683513067379L144,19.667677450296736L148.5,19.66727313669645L153,19.667030548631267L157.5,19.666884995825992L162,19.66679766415593L166.5,19.666745265156507L171,19.66671382576057L175.5,19.666694962122783L180,19.66668364394013L184.5,19.666676853030093L189,19.666672778484728L193.5,19.666670333758372L198,19.666668866921036L202.5,19.666667986819512L207,19.66666745875815L211.5,19.66666714192156L216,19.666666951819373L220.5,19.66666683775873L225,19.666666769322124L229.5,19.66666672826037L234,19.666666703622464L238.5,19.666666688840568L243,19.666666679970366" style="fill: none;" fill="none"></path></g><g><path stroke="rgb(51, 187, 238)" stroke-width="2px" d="M27,211.25572783748294L31.5,113.50620683196394L36,70.38141815306093L40.5,48.38508249796256L45,36.335532353923554L49.5,29.475962010659764L54,25.48521464173544L58.5,23.134101649712704L63,21.738690136679978L67.5,20.906862903964115L72,20.4097021984025L76.5,20.11209929566272L81,19.93378651074062L85.5,19.826888311182966L90,19.762781568159426L94.5,19.72432909884316L99,19.701261783257554L103.5,19.68742289333529L108,19.679120099103287L112.5,19.674138616851018L117,19.67114979743739L121.5,19.669356530967537L126,19.66828058014908L130.5,19.66763501292049L135,19.667247673758478L139.5,19.66701527068333L144,19.66687582899085L148.5,19.666792164030394L153,19.66674196507355L157.5,19.666711845705983L162,19.666693774089833L166.5,19.666682931119475L171,19.666676425338128L175.5,19.666672521869547L180,19.666670179788834L184.5,19.66666877453975L189,19.666667931390734L193.5,19.666667425501103L198,19.6666671219671L202.5,19.666666939847584L207,19.666666830575227L211.5,19.666666765012025L216,19.666666725674087L220.5,19.66666670207112L225,19.66666668790935L229.5,19.666666679412497L234,19.666666674314158L238.5,19.66666667125517L243,19.666666669418888" style="fill: none;" fill="none"></path></g><g><path stroke="rgb(204, 51, 17)" stroke-width="2px" d="M40.5,193.6388230851049L45,120.64432942135306L49.5,79.09000930383684L54,54.91461851725618L58.5,40.671904030204665L63,32.2186957669288L67.5,27.179602444601066L72,24.167872252343717L76.5,22.365035388008653L81,21.284841414493574L85.5,20.63726703561411L90,20.248917330314562L94.5,20.015977635946008L99,19.87623905639026L103.5,19.79240499199094L108,19.74210782291616L112.5,19.711930698422226L117,19.693824847406642L121.5,19.682961489320284L126,19.676443529373664L130.5,19.672532773172136L135,19.670186326567272L139.5,19.668778461166177L144,19.667933742847584L148.5,19.667426912189626L153,19.667122813911885L157.5,19.666940354989563L162,19.66683087965255L166.5,19.66676519445427L171,19.66672578333923L175.5,19.666702136670644L180,19.66668794866905L184.5,19.666679435867653L189,19.666674328186826L193.5,19.666671263578973L198,19.66666942481362L202.5,19.666668321554834L207,19.66666765959958L211.5,19.666667262426632L216,19.666667024122855L220.5,19.66666688114038L225,19.666666795350906L229.5,19.66666674387743L234,19.666666712992683L238.5,19.66666669446294L243,19.666666683343767" style="fill: none;" fill="none"></path></g><g><path stroke="rgb(0, 119, 187)" stroke-width="2px" d="M22.5,249.88924948374407L27,106.0001352230718L31.5,61.952447184089884L36,42.51964363748066L40.5,32.60770012133994L45,27.177956626997446L49.5,24.08691115226447L54,22.288608783714736L58.5,21.229155084590403L63,20.60035761960101L67.5,20.22552134345334L72,20.001491809204893L76.5,19.86738660148065L81,19.787035661212098L85.5,19.738865414467913L90,19.709977765823492L94.5,19.692650393215793L99,19.68225584692672L103.5,19.676019794822714L108,19.672278406768964L112.5,19.670033661485828L117,19.668686845830827L121.5,19.667878767783616L126,19.667393925040297L130.5,19.667103020862882L135,19.66692847888701L139.5,19.666823753890352L144,19.666760918962677L148.5,19.6667232180303L153,19.6667005974796L157.5,19.666687025152022L162,19.66667888175788L166.5,19.66667399572009L171,19.666671064098942L175.5,19.66666930512624L180,19.666668249742628L184.5,19.666667616511592L189,19.66666723657363L193.5,19.666667008611714L198,19.666666871833474L202.5,19.666666789766754L207,19.66666674052584L211.5,19.666666710981744L216,19.66666669325549L220.5,19.66666668261996L225,19.66666667623887L229.5,19.666666672410194L234,19.666666670112136L238.5,19.666666668734386L243,19.666666667906867" style="fill: none;" fill="none"></path></g><g><path stroke="rgb(255, 112, 67)" stroke-width="2px" d="M31.5,268.53027735275475L36,154.16280920657496L40.5,95.82825744568484L45,63.87270277537951L49.5,45.68103814900942L54,35.09752721303096L58.5,28.862346741184474L63,25.161698305414273L67.5,22.95568228875221L72,21.63720600402994L76.5,20.84795945832107L81,20.37507176717239L85.5,20.091576431721077L90,19.921564563482324L94.5,19.819588143554583L99,19.758413339889454L103.5,19.72171243419414L108,19.69969332212968L112.5,19.686482370137533L117,19.678555984420118L121.5,19.67380021976142L126,19.670946785002794L130.5,19.669234732800803L135,19.668207504596257L139.5,19.66759116879296L144,19.66722136771515L148.5,19.666999487213662L153,19.666866358964505L157.5,19.666786482035334L162,19.66673855588415L166.5,19.66670980019519L171,19.66669254678444L175.5,19.666682194737337L180,19.666675983509506L184.5,19.666672256771722L189,19.666670020729704L193.5,19.666668679104923L198,19.666667874128972L202.5,19.666667391144703L207,19.66666710135326L211.5,19.666666927478413L216,19.666666823153715L220.5,19.666666760558904L225,19.66666672300266L229.5,19.666666700468486L234,19.666666686947533L238.5,19.666666678834975L243,19.666666673967" style="fill: none;" fill="none"></path></g></g></g></g><g opacity="0.2"><g><g><g><path stroke="rgb(0, 153, 136)" stroke-width="2px" d="M22.5,19.666666666666675L27,19.666666666666675L31.5,19.666666666666675L36,19.666666666666675L40.5,19.666666666666675L45,19.666666666666675L49.5,19.666666666666675L54,19.666666666666675L58.5,19.666666666666675L63,19.666666666666675L67.5,19.666666666666675L72,19.666666666666675L76.5,19.666666666666675L81,19.666666666666675L85.5,19.666666666666675L90,19.666666666666675L94.5,19.666666666666675L99,19.666666666666675L103.5,19.666666666666675L108,19.666666666666675L112.5,19.666666666666675L117,19.666666666666675L121.5,19.666666666666675L126,19.666666666666675L130.5,19.666666666666675L135,19.666666666666675L139.5,19.666666666666675L144,19.666666666666675L148.5,19.666666666666675L153,19.666666666666675L157.5,19.666666666666675L162,19.666666666666675L166.5,19.666666666666675L171,19.666666666666675L175.5,19.666666666666675L180,19.666666666666675L184.5,19.666666666666675L189,19.666666666666675L193.5,19.666666666666675L198,19.666666666666675L202.5,19.666666666666675L207,19.666666666666675L211.5,19.666666666666675L216,19.666666666666675L220.5,19.666666666666675L225,19.666666666666675L229.5,19.666666666666675L234,19.666666666666675L238.5,19.666666666666675L243,19.666666666666675" style="fill: none;" fill="none"></path></g><g><path stroke="rgb(238, 51, 119)" stroke-width="2px" d="M22.5,2488.6273889541603L27,19.666666666666675L31.5,19.666666666666675L36,19.666666666666675L40.5,19.666666666666675L45,19.666666666666675L49.5,19.666666666666675L54,19.666666666666675L58.5,19.666666666666675L63,19.666666666666675L67.5,19.666666666666675L72,19.666666666666675L76.5,19.666666666666675L81,19.666666666666675L85.5,19.666666666666675L90,19.666666666666675L94.5,19.666666666666675L99,19.666666666666675L103.5,19.666666666666675L108,19.666666666666675L112.5,19.666666666666675L117,19.666666666666675L121.5,19.666666666666675L126,19.666666666666675L130.5,19.666666666666675L135,19.666666666666675L139.5,19.666666666666675L144,19.666666666666675L148.5,19.666666666666675L153,19.666666666666675L157.5,19.666666666666675L162,19.666666666666675L166.5,19.666666666666675L171,19.666666666666675L175.5,19.666666666666675L180,19.666666666666675L184.5,19.666666666666675L189,19.666666666666675L193.5,19.666666666666675L198,19.666666666666675L202.5,19.666666666666675L207,19.666666666666675L211.5,19.666666666666675L216,19.666666666666675L220.5,19.666666666666675L225,19.666666666666675L229.5,19.666666666666675L234,19.666666666666675L238.5,19.666666666666675L243,19.666666666666675" style="fill: none;" fill="none"></path></g><g><path stroke="rgb(51, 187, 238)" stroke-width="2px" d="M22.5,530.5708297888433L27,19.666666666666675L31.5,19.666666666666675L36,19.666666666666675L40.5,19.666666666666675L45,19.666666666666675L49.5,19.666666666666675L54,19.666666666666675L58.5,19.666666666666675L63,19.666666666666675L67.5,19.666666666666675L72,19.666666666666675L76.5,19.666666666666675L81,19.666666666666675L85.5,19.666666666666675L90,19.666666666666675L94.5,19.666666666666675L99,19.666666666666675L103.5,19.666666666666675L108,19.666666666666675L112.5,19.666666666666675L117,19.666666666666675L121.5,19.666666666666675L126,19.666666666666675L130.5,19.666666666666675L135,19.666666666666675L139.5,19.666666666666675L144,19.666666666666675L148.5,19.666666666666675L153,19.666666666666675L157.5,19.666666666666675L162,19.666666666666675L166.5,19.666666666666675L171,19.666666666666675L175.5,19.666666666666675L180,19.666666666666675L184.5,19.666666666666675L189,19.666666666666675L193.5,19.666666666666675L198,19.666666666666675L202.5,19.666666666666675L207,19.666666666666675L211.5,19.666666666666675L216,19.666666666666675L220.5,19.666666666666675L225,19.666666666666675L229.5,19.666666666666675L234,19.666666666666675L238.5,19.666666666666675L243,19.666666666666675" style="fill: none;" fill="none"></path></g><g><path stroke="rgb(204, 51, 17)" stroke-width="2px" d="M27,266.2224420706429L31.5,19.666666666666675L36,19.666666666666675L40.5,19.666666666666675L45,19.666666666666675L49.5,19.666666666666675L54,19.666666666666675L58.5,19.666666666666675L63,19.666666666666675L67.5,19.666666666666675L72,19.666666666666675L76.5,19.666666666666675L81,19.666666666666675L85.5,19.666666666666675L90,19.666666666666675L94.5,19.666666666666675L99,19.666666666666675L103.5,19.666666666666675L108,19.666666666666675L112.5,19.666666666666675L117,19.666666666666675L121.5,19.666666666666675L126,19.666666666666675L130.5,19.666666666666675L135,19.666666666666675L139.5,19.666666666666675L144,19.666666666666675L148.5,19.666666666666675L153,19.666666666666675L157.5,19.666666666666675L162,19.666666666666675L166.5,19.666666666666675L171,19.666666666666675L175.5,19.666666666666675L180,19.666666666666675L184.5,19.666666666666675L189,19.666666666666675L193.5,19.666666666666675L198,19.666666666666675L202.5,19.666666666666675L207,19.666666666666675L211.5,19.666666666666675L216,19.666666666666675L220.5,19.666666666666675L225,19.666666666666675L229.5,19.666666666666675L234,19.666666666666675L238.5,19.666666666666675L243,19.666666666666675" style="fill: none;" fill="none"></path></g><g><path stroke="rgb(0, 119, 187)" stroke-width="2px" d="M22.5,249.88924948374407L27,19.666666666666675L31.5,19.666666666666675L36,19.666666666666675L40.5,19.666666666666675L45,19.666666666666675L49.5,19.666666666666675L54,19.666666666666675L58.5,19.666666666666675L63,19.666666666666675L67.5,19.666666666666675L72,19.666666666666675L76.5,19.666666666666675L81,19.666666666666675L85.5,19.666666666666675L90,19.666666666666675L94.5,19.666666666666675L99,19.666666666666675L103.5,19.666666666666675L108,19.666666666666675L112.5,19.666666666666675L117,19.666666666666675L121.5,19.666666666666675L126,19.666666666666675L130.5,19.666666666666675L135,19.666666666666675L139.5,19.666666666666675L144,19.666666666666675L148.5,19.666666666666675L153,19.666666666666675L157.5,19.666666666666675L162,19.666666666666675L166.5,19.666666666666675L171,19.666666666666675L175.5,19.666666666666675L180,19.666666666666675L184.5,19.666666666666675L189,19.666666666666675L193.5,19.666666666666675L198,19.666666666666675L202.5,19.666666666666675L207,19.666666666666675L211.5,19.666666666666675L216,19.666666666666675L220.5,19.666666666666675L225,19.666666666666675L229.5,19.666666666666675L234,19.666666666666675L238.5,19.666666666666675L243,19.666666666666675" style="fill: none;" fill="none"></path></g><g><path stroke="rgb(255, 112, 67)" stroke-width="2px" d="M22.5,1300.907656431197L27,63.87653438250221L31.5,19.666666666666675L36,19.666666666666675L40.5,19.666666666666675L45,19.666666666666675L49.5,19.666666666666675L54,19.666666666666675L58.5,19.666666666666675L63,19.666666666666675L67.5,19.666666666666675L72,19.666666666666675L76.5,19.666666666666675L81,19.666666666666675L85.5,19.666666666666675L90,19.666666666666675L94.5,19.666666666666675L99,19.666666666666675L103.5,19.666666666666675L108,19.666666666666675L112.5,19.666666666666675L117,19.666666666666675L121.5,19.666666666666675L126,19.666666666666675L130.5,19.666666666666675L135,19.666666666666675L139.5,19.666666666666675L144,19.666666666666675L148.5,19.666666666666675L153,19.666666666666675L157.5,19.666666666666675L162,19.666666666666675L166.5,19.666666666666675L171,19.666666666666675L175.5,19.666666666666675L180,19.666666666666675L184.5,19.666666666666675L189,19.666666666666675L193.5,19.666666666666675L198,19.666666666666675L202.5,19.666666666666675L207,19.666666666666675L211.5,19.666666666666675L216,19.666666666666675L220.5,19.666666666666675L225,19.666666666666675L229.5,19.666666666666675L234,19.666666666666675L238.5,19.666666666666675L243,19.666666666666675" style="fill: none;" fill="none"></path></g></g></g></g></g></g><g transform="translate(60, 177)" clip-path="url(#clip_1)"><clipPath id="clip_1"><rect width="270" height="22"></rect></clipPath><g><g><line x1="0" y1="0" x2="0" y2="5" style="visibility: inherit;" fill="rgb(0, 0, 0)" stroke="rgb(204, 204, 204)" stroke-width="1px"></line><line x1="22.5" y1="0" x2="22.5" y2="5" style="visibility: inherit;" fill="rgb(0, 0, 0)" stroke="rgb(204, 204, 204)" stroke-width="1px"></line><line x1="45" y1="0" x2="45" y2="5" style="visibility: inherit;" fill="rgb(0, 0, 0)" stroke="rgb(204, 204, 204)" stroke-width="1px"></line><line x1="67.5" y1="0" x2="67.5" y2="5" style="visibility: inherit;" fill="rgb(0, 0, 0)" stroke="rgb(204, 204, 204)" stroke-width="1px"></line><line x1="90" y1="0" x2="90" y2="5" style="visibility: inherit;" fill="rgb(0, 0, 0)" stroke="rgb(204, 204, 204)" stroke-width="1px"></line><line x1="112.5" y1="0" x2="112.5" y2="5" style="visibility: inherit;" fill="rgb(0, 0, 0)" stroke="rgb(204, 204, 204)" stroke-width="1px"></line><line x1="135" y1="0" x2="135" y2="5" style="visibility: inherit;" fill="rgb(0, 0, 0)" stroke="rgb(204, 204, 204)" stroke-width="1px"></line><line x1="157.5" y1="0" x2="157.5" y2="5" style="visibility: inherit;" fill="rgb(0, 0, 0)" stroke="rgb(204, 204, 204)" stroke-width="1px"></line><line x1="180" y1="0" x2="180" y2="5" style="visibility: inherit;" fill="rgb(0, 0, 0)" stroke="rgb(204, 204, 204)" stroke-width="1px"></line><line x1="202.5" y1="0" x2="202.5" y2="5" style="visibility: inherit;" fill="rgb(0, 0, 0)" stroke="rgb(204, 204, 204)" stroke-width="1px"></line><line x1="225" y1="0" x2="225" y2="5" style="visibility: inherit;" fill="rgb(0, 0, 0)" stroke="rgb(204, 204, 204)" stroke-width="1px"></line><line x1="247.5" y1="0" x2="247.5" y2="5" style="visibility: inherit;" fill="rgb(0, 0, 0)" stroke="rgb(204, 204, 204)" stroke-width="1px"></line><line x1="270" y1="0" x2="270" y2="5" style="visibility: inherit;" fill="rgb(0, 0, 0)" stroke="rgb(204, 204, 204)" stroke-width="1px"></line></g><g transform="translate(0, 8)"><text x="0" y="0" dx="0em" dy="0.95em" style="text-anchor: middle; visibility: hidden; font-family: Roboto, sans-serif; font-size: 12px; font-weight: 200;" fill="rgb(33, 33, 33)" stroke="none" stroke-width="1px">-5</text><text x="22.5" y="0" dx="0em" dy="0.95em" style="text-anchor: middle; visibility: inherit; font-family: Roboto, sans-serif; font-size: 12px; font-weight: 200;" fill="rgb(33, 33, 33)" stroke="none" stroke-width="1px">0</text><text x="45" y="0" dx="0em" dy="0.95em" style="text-anchor: middle; visibility: inherit; font-family: Roboto, sans-serif; font-size: 12px; font-weight: 200;" fill="rgb(33, 33, 33)" stroke="none" stroke-width="1px">5</text><text x="67.5" y="0" dx="0em" dy="0.95em" style="text-anchor: middle; visibility: inherit; font-family: Roboto, sans-serif; font-size: 12px; font-weight: 200;" fill="rgb(33, 33, 33)" stroke="none" stroke-width="1px">10</text><text x="90" y="0" dx="0em" dy="0.95em" style="text-anchor: middle; visibility: inherit; font-family: Roboto, sans-serif; font-size: 12px; font-weight: 200;" fill="rgb(33, 33, 33)" stroke="none" stroke-width="1px">15</text><text x="112.5" y="0" dx="0em" dy="0.95em" style="text-anchor: middle; visibility: inherit; font-family: Roboto, sans-serif; font-size: 12px; font-weight: 200;" fill="rgb(33, 33, 33)" stroke="none" stroke-width="1px">20</text><text x="135" y="0" dx="0em" dy="0.95em" style="text-anchor: middle; visibility: inherit; font-family: Roboto, sans-serif; font-size: 12px; font-weight: 200;" fill="rgb(33, 33, 33)" stroke="none" stroke-width="1px">25</text><text x="157.5" y="0" dx="0em" dy="0.95em" style="text-anchor: middle; visibility: inherit; font-family: Roboto, sans-serif; font-size: 12px; font-weight: 200;" fill="rgb(33, 33, 33)" stroke="none" stroke-width="1px">30</text><text x="180" y="0" dx="0em" dy="0.95em" style="text-anchor: middle; visibility: inherit; font-family: Roboto, sans-serif; font-size: 12px; font-weight: 200;" fill="rgb(33, 33, 33)" stroke="none" stroke-width="1px">35</text><text x="202.5" y="0" dx="0em" dy="0.95em" style="text-anchor: middle; visibility: inherit; font-family: Roboto, sans-serif; font-size: 12px; font-weight: 200;" fill="rgb(33, 33, 33)" stroke="none" stroke-width="1px">40</text><text x="225" y="0" dx="0em" dy="0.95em" style="text-anchor: middle; visibility: inherit; font-family: Roboto, sans-serif; font-size: 12px; font-weight: 200;" fill="rgb(33, 33, 33)" stroke="none" stroke-width="1px">45</text><text x="247.5" y="0" dx="0em" dy="0.95em" style="text-anchor: middle; visibility: inherit; font-family: Roboto, sans-serif; font-size: 12px; font-weight: 200;" fill="rgb(33, 33, 33)" stroke="none" stroke-width="1px">50</text><text x="270" y="0" dx="0em" dy="0.95em" style="text-anchor: middle; visibility: hidden; font-family: Roboto, sans-serif; font-size: 12px; font-weight: 200;" fill="rgb(33, 33, 33)" stroke="none" stroke-width="1px">55</text></g><line x1="0" y1="0" x2="270" y2="0" fill="rgb(0, 0, 0)" stroke="rgb(204, 204, 204)" stroke-width="1px"></line></g></g></g></g></svg>